<svg width="128" height="32" viewBox="0 0 96 24" fill="none" xmlns="http://www.w3.org/2000/svg">
<path d="M35.281 8.64844C35.2222 8.09847 34.9745 7.67025 34.5379 7.36378C34.1055 7.05731 33.5429 6.90407 32.8502 6.90407C32.3632 6.90407 31.9455 6.97754 31.5971 7.12448C31.2486 7.27142 30.982 7.47083 30.7973 7.72273C30.6126 7.97462 30.5181 8.2622 30.5139 8.58546C30.5139 8.85415 30.5748 9.08715 30.6965 9.28447C30.8225 9.48179 30.9925 9.64972 31.2066 9.78826C31.4207 9.9226 31.6579 10.036 31.9182 10.1283C32.1785 10.2207 32.4409 10.2983 32.7054 10.3613L33.9145 10.6636C34.4015 10.7769 34.8696 10.9302 35.3188 11.1233C35.7722 11.3164 36.1773 11.5599 36.5342 11.8538C36.8952 12.1477 37.1807 12.5024 37.3906 12.918C37.6005 13.3337 37.7055 13.8207 37.7055 14.379C37.7055 15.1347 37.5124 15.8001 37.1261 16.3753C36.7399 16.9462 36.1815 17.3934 35.451 17.7166C34.7247 18.0357 33.8452 18.1952 32.8125 18.1952C31.8091 18.1952 30.9379 18.0399 30.1991 17.7292C29.4644 17.4185 28.8892 16.9651 28.4736 16.369C28.0622 15.7728 27.8396 15.0465 27.8061 14.1901H30.1046C30.1382 14.6393 30.2767 15.013 30.5202 15.311C30.7637 15.6091 31.0807 15.8316 31.4711 15.9786C31.8658 16.1255 32.3066 16.199 32.7936 16.199C33.3015 16.199 33.7466 16.1234 34.1286 15.9723C34.5148 15.8169 34.8171 15.6028 35.0354 15.3299C35.2537 15.0528 35.365 14.7296 35.3692 14.3601C35.365 14.0243 35.2663 13.7472 35.0732 13.5289C34.8801 13.3064 34.6093 13.1217 34.2608 12.9747C33.9166 12.8236 33.5136 12.6892 33.0518 12.5717L31.5845 12.1938C30.5223 11.921 29.6827 11.5074 29.0655 10.9533C28.4526 10.3949 28.1461 9.65391 28.1461 8.7303C28.1461 7.97042 28.3518 7.305 28.7633 6.73404C29.1789 6.16308 29.7435 5.72017 30.4572 5.4053C31.1709 5.08624 31.9791 4.9267 32.8817 4.9267C33.7969 4.9267 34.5988 5.08624 35.2873 5.4053C35.98 5.72017 36.5237 6.15889 36.9183 6.72145C37.313 7.27981 37.5166 7.92214 37.5292 8.64844H35.281ZM41.9672 12.3324V18H39.6876V5.10303H41.9168V9.97088H42.0302C42.2569 9.42511 42.6075 8.99479 43.0819 8.67992C43.5605 8.36086 44.1692 8.20133 44.9081 8.20133C45.5798 8.20133 46.1655 8.34197 46.665 8.62325C47.1646 8.90453 47.5509 9.31596 47.8238 9.85753C48.1008 10.3991 48.2394 11.0603 48.2394 11.8412V18H45.9597V12.1938C45.9597 11.5431 45.7918 11.0372 45.456 10.6762C45.1243 10.3109 44.6583 10.1283 44.0579 10.1283C43.6549 10.1283 43.2939 10.2165 42.9748 10.3928C42.6599 10.5649 42.4122 10.8147 42.2317 11.1422C42.0554 11.4696 41.9672 11.8664 41.9672 12.3324ZM50.5631 18V8.32727H52.8427V18H50.5631ZM51.7092 6.95445C51.3482 6.95445 51.0375 6.8348 50.7772 6.5955C50.5169 6.352 50.3868 6.06023 50.3868 5.72017C50.3868 5.37591 50.5169 5.08414 50.7772 4.84484C51.0375 4.60134 51.3482 4.47959 51.7092 4.47959C52.0745 4.47959 52.3851 4.60134 52.6412 4.84484C52.9015 5.08414 53.0317 5.37591 53.0317 5.72017C53.0317 6.06023 52.9015 6.352 52.6412 6.5955C52.3851 6.8348 52.0745 6.95445 51.7092 6.95445ZM57.2651 14.9647L57.2588 12.2127H57.624L61.1001 8.32727H63.7639L59.488 13.0881H59.0157L57.2651 14.9647ZM55.1869 18V5.10303H57.4666V18H55.1869ZM61.2576 18L58.1089 13.5982L59.6455 11.9923L63.9843 18H61.2576ZM68.0666 18.1952C67.4536 18.1952 66.9016 18.0861 66.4104 17.8678C65.9234 17.6452 65.5372 17.3178 65.2517 16.8854C64.9704 16.453 64.8297 15.9198 64.8297 15.2858C64.8297 14.7401 64.9305 14.2888 65.132 13.9319C65.3335 13.5751 65.6085 13.2896 65.957 13.0755C66.3054 12.8614 66.698 12.6997 67.1346 12.5906C67.5754 12.4772 68.0309 12.3954 68.5011 12.345C69.0679 12.2862 69.5276 12.2337 69.8802 12.1875C70.2329 12.1372 70.489 12.0616 70.6485 11.9608C70.8122 11.8559 70.8941 11.6943 70.8941 11.4759V11.4382C70.8941 10.9638 70.7535 10.5964 70.4722 10.3361C70.1909 10.0758 69.7858 9.94569 69.2568 9.94569C68.6984 9.94569 68.2555 10.0674 67.928 10.3109C67.6048 10.5544 67.3865 10.842 67.2731 11.1737L65.1446 10.8714C65.3125 10.2836 65.5896 9.79246 65.9759 9.39782C66.3621 8.99899 66.8344 8.70091 67.3928 8.5036C67.9511 8.30208 68.5683 8.20133 69.2442 8.20133C69.7102 8.20133 70.1741 8.2559 70.6359 8.36506C71.0977 8.47421 71.5196 8.65473 71.9017 8.90663C72.2837 9.15432 72.5902 9.49228 72.8211 9.9205C73.0562 10.3487 73.1737 10.884 73.1737 11.5263V18H70.9823V16.6713H70.9067C70.7681 16.9399 70.5729 17.1918 70.321 17.4269C70.0733 17.6578 69.7606 17.8447 69.3827 17.9874C69.0091 18.1259 68.5704 18.1952 68.0666 18.1952ZM68.6585 16.5201C69.1161 16.5201 69.5129 16.4299 69.8487 16.2493C70.1846 16.0646 70.4428 15.8211 70.6233 15.5188C70.808 15.2166 70.9004 14.887 70.9004 14.5302V13.3903C70.829 13.4491 70.7073 13.5037 70.5351 13.5541C70.3672 13.6045 70.1783 13.6485 69.9684 13.6863C69.7585 13.7241 69.5507 13.7577 69.3449 13.7871C69.1392 13.8165 68.9608 13.8417 68.8097 13.8626C68.4696 13.9088 68.1652 13.9844 67.8966 14.0893C67.6279 14.1943 67.4159 14.3412 67.2605 14.5302C67.1052 14.7149 67.0275 14.9542 67.0275 15.2481C67.0275 15.6679 67.1808 15.9848 67.4872 16.199C67.7937 16.4131 68.1841 16.5201 68.6585 16.5201ZM77.5441 14.9647L77.5378 12.2127H77.903L81.3792 8.32727H84.043L79.7671 13.0881H79.2948L77.5441 14.9647ZM75.466 18V5.10303H77.7456V18H75.466ZM81.5366 18L78.3879 13.5982L79.9245 11.9923L84.2634 18H81.5366ZM91.7273 13.9319V8.32727H94.0069V18H91.7966V16.2808H91.6958C91.4775 16.8224 91.1186 17.2653 90.619 17.6096C90.1236 17.9538 89.5127 18.1259 88.7864 18.1259C88.1525 18.1259 87.592 17.9853 87.105 17.704C86.6222 17.4185 86.2444 17.005 85.9715 16.4634C85.6986 15.9177 85.5622 15.2586 85.5622 14.4861V8.32727H87.8418V14.1334C87.8418 14.7464 88.0098 15.2334 88.3456 15.5944C88.6815 15.9555 89.1223 16.136 89.6681 16.136C90.0039 16.136 90.3293 16.0541 90.6442 15.8904C90.959 15.7267 91.2172 15.4832 91.4187 15.1599C91.6244 14.8324 91.7273 14.4231 91.7273 13.9319Z" fill="black"/>
<rect x="12" y="2.12132" width="13.9706" height="13.9706" rx="1.5" transform="rotate(45 12 2.12132)" fill="white" stroke="black" stroke-width="3"/>
<rect x="12" y="4" width="11.3137" height="11.3137" rx="1.5" transform="rotate(45 12 4)" fill="white" stroke="black"/>
<rect x="12" y="9" width="4.24264" height="4.24264" rx="1" transform="rotate(45 12 9)" fill="black"/>
</svg>
